<svg id="Layer_1" data-name="Layer 1" xmlns="http://www.w3.org/2000/svg" viewBox="0 0 1000 1000"><defs><style>.cls-1{fill:#fff;}</style></defs><title>whiteArtboard 1</title><polygon class="cls-1" points="515.5 489.57 495.71 489.57 363.64 126.72 227.42 500.93 210.88 546.39 45.78 1000 0 1000 165.1 546.39 181.64 500.93 340.73 63.84 363.64 0.93 386.54 63.84 528.51 453.84 515.5 489.57"/><polygon class="cls-1" points="727.27 1000 681.49 1000 539.72 610.46 558.88 557.75 566.31 557.75 727.27 1000"/><polygon class="cls-1" points="362.8 500 346.26 545.46 170.46 545.46 187 500 362.8 500"/><polygon class="cls-1" points="737.8 500 721.26 545.46 545.46 545.46 553.81 522.5 556.82 514.24 562 500 737.8 500"/><polygon class="cls-1" points="562.17 545.46 358.94 545.46 375.48 500 551.64 500 556.82 514.24 558.08 517.73 560.15 523.41 557.15 531.67 560.53 540.99 562.17 545.46"/><polygon class="cls-1" points="886.21 500 840.43 500 704.54 126.72 568.66 500 568.33 500.93 564.54 511.36 558.08 529.09 555.08 537.35 548 556.82 532.2 600.23 386.69 1000 340.91 1000 502.22 556.82 506.01 546.39 506.34 545.46 509.29 537.35 511.36 531.67 518.76 511.36 522.55 500.93 522.88 500 534.27 468.76 681.64 63.84 704.54 0.93 727.45 63.84 886.21 500"/></svg>